<?xml version="1.0" encoding="UTF-8"?>
<svg width="1440px" height="250px" viewBox="0 0 1440 250" version="1.1" xmlns="http://www.w3.org/2000/svg" xmlns:xlink="http://www.w3.org/1999/xlink">
    <!-- Generator: Sketch 52.2 (67145) - http://www.bohemiancoding.com/sketch -->
    <title>pattern-fworks-light</title>
    <desc>Created with Sketch.</desc>
    <defs>
        <linearGradient x1="50%" y1="0.00199298469%" x2="50%" y2="99.9541723%" id="linearGradient-1">
            <stop stop-color="#3973E6" offset="0%"></stop>
            <stop stop-color="#3973E6" stop-opacity="0" offset="99.998007%"></stop>
        </linearGradient>
        <rect id="path-2" x="0" y="0" width="1440" height="250"></rect>
        <linearGradient x1="35.7152252%" y1="50%" x2="100%" y2="50%" id="linearGradient-4">
            <stop stop-color="#3973E6" offset="0%"></stop>
            <stop stop-color="#3973E6" stop-opacity="0" offset="100%"></stop>
        </linearGradient>
        <linearGradient x1="35.7152252%" y1="50%" x2="77.3290115%" y2="51.3640774%" id="linearGradient-5">
            <stop stop-color="#3973E6" offset="0%"></stop>
            <stop stop-color="#3973E6" stop-opacity="0" offset="100%"></stop>
        </linearGradient>
        <linearGradient x1="35.7152252%" y1="50%" x2="85.7294077%" y2="50%" id="linearGradient-6">
            <stop stop-color="#3973E6" offset="0%"></stop>
            <stop stop-color="#3973E6" stop-opacity="0" offset="100%"></stop>
        </linearGradient>
    </defs>
    <g id="pattern-fworks-light" stroke="none" stroke-width="1" fill="none" fill-rule="evenodd">
        <g>
            <mask id="mask-3" fill="white">
                <use xlink:href="#path-2"></use>
            </mask>
            <use id="Mask" fill-opacity="0.1" fill="url(#linearGradient-1)" transform="translate(720.000000, 125.000000) rotate(-180.000000) translate(-720.000000, -125.000000) " xlink:href="#path-2"></use>
            <g id="Group" mask="url(#mask-3)" fill-opacity="0.15">
                <g transform="translate(-146.000000, -66.000000)">
                    <rect id="Rectangle-Copy" fill="url(#linearGradient-4)" transform="translate(1366.000000, 369.354738) scale(1, -1) rotate(135.000000) translate(-1366.000000, -369.354738) " x="1116" y="316.81846" width="500" height="105.072555"></rect>
                    <polygon id="Rectangle-Copy-3" fill="url(#linearGradient-4)" transform="translate(1518.825379, 357.452958) scale(1, -1) rotate(135.000000) translate(-1518.825379, -357.452958) " points="1268.30678 316.998714 1769.34398 316.998714 1769.34398 397.907202 1268.30678 397.907202"></polygon>
                    <polygon id="Rectangle-Copy-2" fill="url(#linearGradient-4)" transform="translate(915.671258, 408.990995) scale(1, -1) rotate(135.000000) translate(-915.671258, -408.990995) " points="420.028804 328.708784 1411.31371 328.708784 1411.31371 489.273207 420.028804 489.273207"></polygon>
                    <polygon id="Rectangle-Copy-4" fill="url(#linearGradient-4)" transform="translate(1259.560507, 393.893135) scale(1, -1) rotate(135.000000) translate(-1259.560507, -393.893135) " points="946.699288 370.192558 1572.42173 370.192558 1572.42173 417.593711 946.699288 417.593711"></polygon>
                    <rect id="Rectangle-Copy" fill="url(#linearGradient-4)" transform="translate(463.589051, 352.834686) scale(-1, -1) rotate(135.000000) translate(-463.589051, -352.834686) " x="213.589051" y="318.857875" width="500" height="67.9536226"></rect>
                    <polygon id="Rectangle-Copy-3" fill="url(#linearGradient-4)" transform="translate(291.750000, 300.820571) scale(-1, -1) rotate(135.000000) translate(-291.750000, -300.820571) " points="-47.156944 249.866327 630.656944 249.866327 630.656944 351.774815 -47.156944 351.774815"></polygon>
                    <polygon id="Rectangle-Copy-5" fill="url(#linearGradient-5)" transform="translate(1432.556241, 336.800511) scale(-1, -1) rotate(135.000000) translate(-1432.556241, -336.800511) " points="1082.3912 211.810437 1782.72128 211.810437 1782.72128 461.790585 1082.3912 461.790585"></polygon>
                    <polygon id="Rectangle-Copy-5" fill="url(#linearGradient-6)" transform="translate(346.000000, 411.830746) scale(1, -1) rotate(135.000000) translate(-346.000000, -411.830746) " points="-49.0205352 318.340672 741.020535 318.340672 741.020535 505.32082 -49.0205352 505.32082"></polygon>
                    <polygon id="Rectangle-Copy-4" fill="url(#linearGradient-4)" transform="translate(771.567181, 365.861789) scale(-1, -1) rotate(135.000000) translate(-771.567181, -365.861789) " points="421.203883 250.982279 1121.93048 250.982279 1121.93048 480.741298 421.203883 480.741298"></polygon>
                </g>
            </g>
        </g>
    </g>
</svg>